<svg width="103" height="102" viewBox="0 0 103 102" fill="none" xmlns="http://www.w3.org/2000/svg">
<path d="M51.4208 101.995C23.2629 102.287 0.235188 79.6836 0.00199573 51.5464C-0.231196 24.982 19.9982 2.67033 46.4655 0.340124C47.9812 0.165359 49.5553 0.223609 51.071 0.107098C59.1162 -0.475453 67.2196 1.33046 74.2736 5.23356C81.4443 8.90363 87.7405 14.2048 92.6375 20.6129C97.9426 27.6618 101.207 35.9923 102.023 44.7888C104.763 66.4597 93.3371 87.4315 73.6324 96.9271C66.6949 100.248 59.1162 101.995 51.4208 101.995ZM50.1383 94.2474C54.4523 94.4804 58.7664 94.0144 62.9055 92.8493C86.6328 86.4994 100.683 62.1488 94.3282 38.4972C87.9737 14.7874 63.6051 0.747909 39.9361 7.09772C37.7791 7.68027 35.6804 8.43758 33.5816 9.31141C26.8774 12.1077 21.0476 16.6516 16.6752 22.4771C15.1012 24.6325 13.5271 26.8462 12.128 29.1764C11.1369 30.7493 10.2624 32.4387 9.56286 34.1863C1.05136 57.3136 12.8858 83.0041 36.0885 91.5676C40.5774 93.1988 45.2995 94.1309 50.1383 94.3056V94.2474Z" fill="#1D1D1B"/>
<path d="M50.6047 90.6355C42.7928 90.6355 35.0974 88.4218 28.568 84.1109C20.5229 79.101 14.8097 71.1783 12.5361 62.0322C11.8948 59.469 11.3701 56.8475 10.7872 54.2843C10.0876 50.6725 10.1459 46.8859 11.0786 43.274C11.8948 39.3127 13.1774 35.5261 14.8097 31.8561C17.2582 26.6131 20.931 21.9527 25.4783 18.3409C28.0434 16.3019 30.7834 14.5543 33.6983 13.0979C37.371 11.292 41.3936 10.2434 45.4745 10.0104C49.3804 9.66085 53.2864 9.66085 57.1924 10.1269C61.623 10.5347 65.9371 11.9328 69.843 14.2047C72.5247 15.7776 75.0316 17.5253 77.4218 19.506C82.1439 23.4673 85.7001 28.5938 87.8571 34.361C89.8393 38.9632 91.0052 43.9149 91.2384 48.9248C91.2384 50.789 91.1218 52.6531 90.772 54.5173C90.1307 58.6534 89.0814 62.7313 87.6239 66.6344C85.9916 70.8287 83.5431 74.6153 80.395 77.7611C78.7626 79.567 76.9554 81.1981 75.0898 82.7128C72.4664 84.6352 69.6098 86.2663 66.5783 87.4314C61.5064 89.5286 56.0847 90.5772 50.6047 90.5772V90.6355ZM20.4063 61.5662C21.8638 59.2942 23.2046 57.1388 24.6621 55.0416C25.2451 54.1678 25.5365 53.1774 25.5365 52.1288C25.5365 44.4974 25.6531 36.8077 25.7697 29.1763C25.7697 28.9433 25.7697 28.7103 25.7697 28.3025C17.1416 37.1573 15.0429 50.4394 20.4646 61.5079L20.4063 61.5662ZM75.9643 28.3607C75.9643 28.3607 75.906 28.8268 75.8477 29.0598C75.906 36.9825 76.0226 44.9052 76.1392 52.8279C76.1392 53.4687 76.3724 54.1095 76.7222 54.6338C77.9465 56.6145 79.1707 58.5369 80.4533 60.4593C80.6865 60.8088 80.9779 61.1584 81.2694 61.4497C86.5746 50.3812 84.4758 37.1573 75.906 28.3025L75.9643 28.3607ZM50.8379 80.7321L62.0311 71.0035C61.3898 70.7122 61.0983 70.5375 60.7485 70.4209C58.8247 69.7219 56.9009 69.0228 54.977 68.3238C52.5868 67.4499 49.9634 67.3334 47.5149 68.0325C46.757 68.2655 46.0575 68.4985 45.2996 68.7315C43.4923 69.4306 41.6268 70.1297 39.5281 70.9452L50.7796 80.7321H50.8379ZM57.6588 39.7788C57.6588 39.7788 57.6587 39.4875 57.6004 39.371C55.6183 35.8174 53.6362 32.2638 51.5958 28.7103C51.0128 27.7199 50.6047 27.7199 49.9634 28.7103C47.9813 32.1473 46.0574 35.6426 44.1336 39.0797C44.017 39.3127 43.9587 39.4875 43.9004 39.7205L50.7796 47.4102L57.6588 39.7205V39.7788ZM36.0302 16.5349C45.6494 19.2729 55.7932 19.2147 65.4124 16.4767C56.3179 11.1755 45.0664 11.1755 36.0302 16.5349ZM31.2498 24.9237V44.4392C31.2498 44.4392 31.5995 44.3809 31.6578 44.3226C35.3306 38.8467 39.0034 33.3124 42.6762 27.8364C42.6762 27.8364 42.6762 27.7199 42.6762 27.6617C42.6762 27.6034 42.6762 27.5452 42.6762 27.7199L31.1915 24.8654L31.2498 24.9237ZM70.3677 24.7489C68.5022 25.3315 66.6366 25.9723 64.7128 26.4383C62.789 26.9044 60.8651 27.1956 58.7664 27.6034L70.0179 44.3226L70.3677 44.2061V24.7489ZM29.6174 63.7799L29.7923 63.9546C30.2587 63.7216 30.7251 63.4886 31.2498 63.2556C33.2902 62.3817 35.214 61.3914 37.3127 60.6341C38.7119 60.168 39.9945 59.4107 41.1021 58.4204C42.7928 56.8475 44.2502 55.0998 45.4162 53.1774L39.6447 46.7111L29.6174 63.7216V63.7799ZM55.9098 53.4687C57.4256 55.1581 58.8247 56.7892 60.2822 58.3039C61.3898 59.469 62.789 60.2845 64.363 60.6923C65.3541 61.0419 66.3451 61.3914 67.2779 61.9157C68.7937 62.5565 70.2511 63.2556 71.7669 63.9546C68.7354 58.1291 65.3541 52.4201 61.6813 46.9441L55.9098 53.4687ZM56.4345 84.4022C62.0311 83.2953 67.2196 80.6156 71.4171 76.7708L67.1613 74.0328C64.7128 76.1882 62.3226 78.1689 60.049 80.3243C58.7664 81.6059 57.6004 83.004 56.4928 84.4022H56.4345ZM30.317 76.7125C34.5727 80.8486 40.0528 83.4701 45.8826 84.2274L34.5144 73.9745L30.317 76.7125Z" fill="#1D1D1B"/>
</svg>
